<?xml version="1.0" standalone="no"?>
<!DOCTYPE svg PUBLIC "-//W3C//DTD SVG 20010904//EN"
 "http://www.w3.org/TR/2001/REC-SVG-20010904/DTD/svg10.dtd">
<svg version="1.0" xmlns="http://www.w3.org/2000/svg"
 width="3847.000000pt" height="1392.000000pt" viewBox="0 0 3847.000000 1392.000000"
 preserveAspectRatio="xMidYMid meet">

<g transform="translate(0.000000,1392.000000) scale(0.100000,-0.100000)"
fill="#000000" stroke="none">
<path d="M10605 13909 c-271 -7 -354 -20 -455 -71 -54 -28 -70 -42 -98 -88
-37 -63 -46 -90 -69 -215 -13 -71 -16 -148 -15 -360 1 -313 11 -381 68 -467
79 -119 187 -165 424 -180 228 -15 892 -4 1002 16 255 46 324 126 363 416 17
119 19 441 5 540 -13 94 -45 189 -79 240 -57 85 -171 140 -331 159 -113 13
-518 19 -815 10z m718 -356 c39 -18 52 -31 70 -70 21 -45 22 -62 22 -268 0
-260 -6 -283 -86 -323 -78 -38 -352 -52 -679 -33 -218 12 -243 36 -263 248 -7
76 -7 149 0 230 21 238 33 243 548 240 327 -2 342 -3 388 -24z"/>
<path d="M37225 13909 c-267 -7 -351 -20 -453 -70 -50 -24 -70 -42 -93 -78
-37 -58 -64 -145 -79 -253 -15 -106 -14 -584 1 -657 34 -166 133 -262 316
-308 60 -15 130 -17 568 -17 430 0 513 2 592 17 238 44 311 114 360 342 24
113 29 526 9 644 -42 241 -146 337 -401 370 -105 13 -519 19 -820 10z m719
-359 c36 -18 56 -36 70 -65 19 -37 21 -58 21 -265 0 -205 -2 -229 -20 -265
-30 -59 -84 -83 -226 -96 -129 -13 -593 -4 -651 11 -48 14 -87 46 -105 88 -23
56 -35 250 -24 383 20 234 32 239 546 236 l340 -2 49 -25z"/>
<path d="M455 13900 c-278 -17 -377 -106 -431 -387 -19 -100 -21 -372 -5 -578
12 -156 36 -221 105 -291 54 -53 111 -79 236 -104 77 -16 875 -25 1010 -11
213 21 303 71 348 194 22 58 42 191 42 280 l0 47 -205 0 -204 0 -7 -51 c-9
-66 -39 -109 -89 -126 -56 -19 -314 -27 -516 -15 -206 12 -249 27 -280 97 -43
98 -44 431 -1 528 37 84 128 101 517 95 203 -3 257 -7 287 -20 42 -19 63 -48
72 -100 l7 -38 201 0 201 0 -6 80 c-16 205 -80 324 -201 369 -29 10 -104 24
-173 30 -132 12 -715 12 -908 1z"/>
<path d="M2080 13215 l0 -685 765 0 765 0 0 155 0 155 -555 0 -555 0 0 120 0
120 518 2 517 3 3 133 3 132 -521 0 -520 0 0 120 0 120 555 0 555 0 0 155 0
155 -765 0 -765 0 0 -685z"/>
<path d="M3920 13215 l0 -685 195 0 195 0 2 514 3 514 410 -513 410 -514 333
0 332 -1 0 685 0 685 -195 0 -195 0 -2 -510 -3 -511 -410 511 -410 510 -332 0
-333 0 0 -685z"/>
<path d="M6040 13730 l0 -170 305 0 305 0 0 -515 0 -515 205 0 205 0 2 513 3
512 308 3 307 2 0 170 0 170 -820 0 -820 0 0 -170z"/>
<path d="M7910 13215 l0 -685 210 0 210 0 0 175 0 176 403 -3 c440 -3 436 -3
457 -63 6 -16 14 -87 17 -157 l6 -128 209 0 208 0 0 158 c0 179 -13 242 -57
284 -36 34 -108 66 -168 75 -51 7 -49 15 10 33 107 34 169 83 201 159 19 45
36 216 28 290 -13 131 -46 221 -101 273 -39 38 -126 75 -203 87 -41 7 -321 11
-747 11 l-683 0 0 -685z m1225 344 c24 -6 51 -20 61 -30 42 -47 36 -231 -9
-277 -35 -35 -113 -41 -514 -42 l-343 0 0 180 0 180 381 0 c244 0 396 -4 424
-11z"/>
<path d="M12690 13215 l0 -685 708 0 c766 0 787 2 892 55 29 15 75 48 102 73
109 102 133 214 125 596 -4 215 -7 262 -25 329 -53 196 -141 268 -371 302 -76
12 -233 15 -763 15 l-668 0 0 -685z m1275 335 c109 -34 130 -85 130 -320 0
-250 -24 -311 -135 -344 -45 -13 -117 -16 -457 -16 l-403 0 0 343 c0 189 3
347 8 351 13 13 812 1 857 -14z"/>
<path d="M14850 13215 l0 -685 765 0 765 0 0 155 0 155 -555 0 -555 0 0 120 0
120 518 2 517 3 3 133 3 132 -521 0 -520 0 0 120 0 120 555 0 555 0 0 155 0
155 -765 0 -765 0 0 -685z"/>
<path d="M17080 13730 l0 -170 305 0 305 0 0 -515 0 -515 210 0 210 0 0 515 0
515 305 0 305 0 0 170 0 170 -820 0 -820 0 0 -170z"/>
<path d="M18950 13215 l0 -685 210 0 210 0 0 175 0 175 393 0 c353 0 395 -2
427 -18 46 -22 58 -69 59 -219 l1 -113 210 0 210 0 0 163 c0 89 -5 179 -10
199 -22 77 -91 129 -203 152 l-60 12 85 32 c127 48 177 107 198 233 22 138 4
322 -39 407 -31 60 -104 119 -180 144 -66 23 -71 23 -788 26 l-723 3 0 -686z
m1225 344 c24 -6 54 -22 67 -36 21 -22 23 -34 23 -121 -1 -117 -16 -154 -72
-174 -29 -10 -130 -13 -428 -13 l-390 0 -3 178 -2 177 380 0 c244 0 397 -4
425 -11z"/>
<path d="M21030 13215 l0 -685 765 0 765 0 0 155 0 155 -555 0 -555 0 0 120 0
120 520 0 520 0 0 135 0 135 -520 0 -520 0 0 120 0 120 555 0 555 0 0 155 0
155 -765 0 -765 0 0 -685z"/>
<path d="M22870 13215 l0 -685 210 0 210 0 0 685 0 685 -210 0 -210 0 0 -685z"/>
<path d="M23650 13215 l0 -685 195 0 195 0 2 511 3 510 410 -510 409 -511 333
0 333 0 0 685 0 685 -195 0 -195 0 0 -512 c0 -466 -1 -511 -16 -497 -8 9 -194
238 -413 510 l-397 494 -332 3 -332 2 0 -685z"/>
<path d="M26529 13878 c-7 -13 -173 -311 -369 -663 -196 -352 -362 -650 -369
-662 l-12 -23 230 0 229 0 67 125 66 125 447 0 447 0 65 -125 65 -125 228 0
c126 0 227 4 225 8 -1 5 -169 313 -372 685 l-369 677 -283 0 -283 0 -12 -22z
m450 -540 l142 -278 -301 0 c-283 0 -300 1 -292 18 100 193 268 513 279 531 8
13 18 19 23 15 4 -5 71 -134 149 -286z"/>
<path d="M28100 13215 l0 -685 195 0 195 0 2 520 3 521 297 -518 296 -518 169
-3 168 -2 300 519 300 519 3 -519 2 -519 195 0 195 0 0 685 0 685 -317 0 -318
0 -235 -407 c-129 -224 -248 -429 -263 -456 l-29 -49 -260 456 -261 456 -319
0 -318 0 0 -685z"/>
<path d="M30780 13215 l0 -685 765 0 765 0 0 155 0 155 -555 0 -555 0 0 120 0
120 518 2 517 3 3 133 3 132 -521 0 -520 0 0 120 0 120 555 0 555 0 0 155 0
155 -765 0 -765 0 0 -685z"/>
<path d="M32620 13215 l0 -685 195 0 195 0 2 514 3 514 410 -513 410 -514 333
0 332 -1 0 685 0 685 -195 0 -195 0 -2 -510 -3 -511 -410 510 -410 511 -332 0
-333 0 0 -685z"/>
<path d="M34740 13730 l0 -170 305 0 305 0 0 -515 0 -515 205 0 205 0 2 513 3
512 308 3 307 2 0 170 0 170 -820 0 -820 0 0 -170z"/>
<path d="M6880 11484 c-25 -2 -108 -8 -185 -14 -843 -65 -1705 -308 -2405
-677 -723 -382 -1347 -906 -1824 -1532 -822 -1079 -1212 -2457 -1105 -3911
126 -1720 978 -3227 2357 -4168 1040 -710 2297 -1066 3662 -1039 770 16 1452
136 2090 369 695 254 1265 601 1792 1091 117 110 348 353 356 376 2 7 -1070
1037 -1271 1221 l-48 44 -71 -78 c-39 -42 -125 -127 -192 -188 -662 -608
-1401 -939 -2286 -1023 -219 -21 -711 -16 -920 9 -1122 136 -2040 642 -2667
1471 -603 798 -863 1889 -712 2990 223 1633 1373 2855 2994 3180 1015 204
2040 60 2850 -400 326 -185 560 -363 847 -644 l157 -153 24 18 c41 31 1297
1216 1297 1224 0 12 -226 254 -325 349 -884 843 -2017 1332 -3400 1467 -150
14 -896 28 -1015 18z"/>
<path d="M10556 11411 c373 -195 724 -432 1063 -718 178 -150 496 -474 701
-716 l185 -217 85 0 c141 0 495 -19 655 -35 1236 -125 1803 -594 1921 -1587
19 -162 22 -493 5 -603 -95 -623 -484 -904 -1381 -999 -372 -39 -384 -40
-3605 -46 -2925 -5 -3144 -7 -3197 -22 -400 -120 -646 -456 -625 -853 7 -125
25 -199 72 -301 105 -229 284 -384 532 -461 l88 -28 2929 -5 2928 -5 1207
-2337 1206 -2337 1118 -1 c614 0 1117 2 1117 6 0 3 -566 1054 -1257 2336 -692
1282 -1259 2335 -1261 2340 -2 4 7 8 20 8 14 0 80 15 149 34 468 129 825 333
1145 655 422 423 698 988 795 1626 27 179 37 612 20 831 -75 947 -442 1785
-1030 2346 -625 597 -1495 966 -2611 1107 -419 54 -426 54 -1820 58 l-1305 3
151 -79z"/>
<path d="M17880 8078 c0 -3095 3 -3376 35 -3683 69 -650 241 -1241 525 -1800
356 -701 836 -1282 1430 -1729 645 -486 1298 -750 2090 -843 182 -22 725 -24
900 -5 549 62 1010 197 1463 430 621 319 1180 797 1620 1386 371 498 658 1071
822 1642 123 429 186 835 205 1324 6 153 10 1481 10 3318 l0 3062 -935 0 -935
0 -3 -3227 c-3 -3547 1 -3287 -62 -3598 -103 -510 -333 -979 -687 -1400 -188
-223 -528 -489 -809 -633 -699 -357 -1533 -359 -2232 -5 -282 143 -614 401
-806 626 -359 422 -589 884 -696 1398 -64 310 -59 18 -62 3592 l-3 3247 -935
0 -935 0 0 -3102z"/>
<path d="M28020 10155 l0 -1025 3131 0 c1742 0 3129 -4 3127 -9 -1 -4 -1446
-1555 -3210 -3446 l-3208 -3437 0 -1029 0 -1029 4630 0 4630 0 0 1030 0 1030
-3285 0 c-1807 0 -3285 2 -3285 5 0 3 1442 1552 3205 3442 l3204 3438 1 1028
0 1027 -4470 0 -4470 0 0 -1025z"/>
</g>
</svg>
